<svg id="Layer_1" data-name="Layer 1" xmlns="http://www.w3.org/2000/svg" viewBox="0 0 576 576"><defs><style>.cls-1{fill:#fff;}</style></defs><title>behance</title><path class="cls-1" d="M464.19,189.9H354.66V162.7H464.19ZM281.76,301.45q10.6,16.43,10.6,39.83c0,16.15-4,30.61-12.09,43.4A75.3,75.3,0,0,1,261,406a74.21,74.21,0,0,1-30.71,13.66,189.1,189.1,0,0,1-38.39,3.68H69.46v-272H200.81c33.1.55,56.58,10.13,70.42,29q12.48,17.33,12.45,41.52c0,16.63-4.17,29.93-12.57,40q-7,8.5-20.72,15.48c13.85,5.07,24.35,13,31.37,24Zm-149.58-42.8h57.55c11.84,0,21.39-2.25,28.74-6.76s11-12.45,11-23.91c0-12.66-4.86-21.05-14.6-25.09-8.37-2.79-19.09-4.27-32.08-4.27H132.18ZM235,337.39c0-14.13-5.76-23.88-17.28-29.12-6.45-3-15.56-4.5-27.2-4.62H132.18v72.49h57.48c11.79,0,20.94-1.54,27.53-4.77,11.9-5.92,17.85-17.22,17.85-34Zm269.76-44.22c1.33,8.89,1.92,21.79,1.68,38.68H364.66q1.17,29.33,20.35,41.09c7.73,4.91,17.1,7.33,28.08,7.33,11.57,0,21-2.94,28.27-8.94a43,43,0,0,0,10.48-13.38h52c-1.37,11.58-7.64,23.29-18.87,35.22q-26.14,28.38-73.27,28.43-38.88,0-68.62-24t-29.69-78q0-50.69,26.8-77.66t69.69-27q25.4,0,45.81,9.11t33.62,28.83c8,11.62,13.14,25,15.53,40.31Zm-51.17,5.07c-.95-13.54-5.48-23.78-13.61-30.81s-18.14-10.55-30.19-10.55c-13.09,0-23.19,3.77-30.38,11.19s-11.74,17.43-13.59,30.16Zm0,0"/><path class="cls-1" d="M536,40V536H40V40H536M576,0H0V576H576V0Z"/></svg>