<svg id="Layer_1" data-name="Layer 1" xmlns="http://www.w3.org/2000/svg" viewBox="0 0 576 576"><defs><style>.cls-1{fill:#fff;}</style></defs><title>Artboard 1</title><path class="cls-1" d="M110.82,470.75c22.56-2.38,43.7-6.93,50.39-12.6s6.25-19.47,6.25-42.5V170.75c0-21.76-.91-36.91-7.5-43.6s-18.15-8.83-46.5-13.5c-6.46-1.06-2.65-24.17-2.65-24.17s173.8.57,231.73-.57C369.42,88.38,450,82.78,450,82.78l-8.4,119.37s-21.84,3.66-24.17-5.33c-14.17-54.83-21.67-62.5-30-69.83-9.81-8.63-21.22-6.5-57.16-6.5h-78c-9,0-15.55-.56-17.65,2.33s-2.17,10.35-2.17,18.33v135h54.83c26.15,0,41-1.13,48.17-8.87s7.34-25,14.5-47.25c2.25-7,24.67-4.54,24.67-4.54V363.17s-23.92,1.61-26.43-7.08c-7.28-25.14-8.48-33.83-15-42.11-5.26-6.7-21.52-9.08-47.47-9.08H232.46V440.3c0,12.18,11.54,19.37,19.24,21.56s23,3.29,61.43,3.29c41.58,0,64.71,1.59,84.5-7.5s25.12-29.91,48.83-80.5c2.5-5.33,21.83-3.5,21.83-3.5L454,495.22H110.82Z"/><path class="cls-1" d="M536,40V536H40V40H536M576,0H0V576H576V0Z"/></svg>