<svg id="Layer_1" data-name="Layer 1" xmlns="http://www.w3.org/2000/svg" viewBox="0 0 576 576"><defs><style>.cls-1{fill:#fff;}</style></defs><title>Artboard 1</title><path class="cls-1" d="M536,40V536H40V40H536M576,0H0V576H576V0Z"/><path class="cls-1" d="M368.13,495H207.87A127,127,0,0,1,81,368.13V207.87A127,127,0,0,1,207.87,81H368.13A127,127,0,0,1,495,207.87V368.13A127,127,0,0,1,368.13,495ZM207.87,119.73a88.24,88.24,0,0,0-88.14,88.14V368.13a88.24,88.24,0,0,0,88.14,88.14H368.13a88.24,88.24,0,0,0,88.14-88.14V207.87a88.24,88.24,0,0,0-88.14-88.14Z"/><path class="cls-1" d="M288,395.74A107.74,107.74,0,1,1,395.74,288,107.86,107.86,0,0,1,288,395.74ZM288,219a69,69,0,1,0,69,69A69.12,69.12,0,0,0,288,219Z"/><circle class="cls-1" cx="397.66" cy="179.53" r="25.02"/></svg>