<svg id="Layer_1" data-name="Layer 1" xmlns="http://www.w3.org/2000/svg" viewBox="0 0 576 576"><defs><style>.cls-1{fill:#fff;}</style></defs><title>twitter</title><path class="cls-1" d="M473.82,208c-.54,68.45-22.43,129.63-67.62,182-21.71,25.17-48,47.13-77.56,61.43C292.42,469,255.19,476.17,213,476.17A261,261,0,0,1,79.26,439l-2.56-1.42C149.93,448.09,207,400.62,207,400.62c-65.15-9.31-83.77-63.29-83.77-63.29,27.3,3.72,37.23-3.72,37.23-3.72-75.08-28.54-67.64-88.11-67.64-88.11C120.14,257.9,131.31,256,131.31,256c-61.43-50.88-26.68-121.62-26.68-121.62C179.09,228.74,292,228.74,292,228.74V207a89.35,89.35,0,0,1,155.25-60.35s37.5-8.14,57.28-22.1c0,0-7.91,29.55-36.07,48.63v2.09s29.55-5.35,48.4-13.5c0,0-22.8,30.25-43,45.37Z"/><path class="cls-1" d="M536,40V536H40V40H536M576,0H0V576H576V0Z"/></svg>